<?xml version="1.0" standalone="no"?>
<!DOCTYPE svg PUBLIC "-//W3C//DTD SVG 20010904//EN"
 "http://www.w3.org/TR/2001/REC-SVG-20010904/DTD/svg10.dtd">
<svg version="1.0" xmlns="http://www.w3.org/2000/svg"
 width="512.000000pt" height="512.000000pt" viewBox="0 0 512.000000 512.000000"
 preserveAspectRatio="xMidYMid meet">
<metadata>
Created by potrace 1.14, written by Peter Selinger 2001-2017
</metadata>
<g transform="translate(0.000000,512.000000) scale(0.100000,-0.100000)"
fill="#000000" stroke="none">
<path d="M2379 5116 c-2 -2 -39 -6 -81 -10 -43 -4 -83 -8 -90 -11 -7 -2 -31
-6 -53 -9 -33 -4 -128 -22 -215 -41 -8 -2 -53 -15 -100 -29 -482 -141 -915
-424 -1232 -803 -40 -49 -79 -95 -87 -103 -58 -61 -230 -353 -300 -510 -61
-136 -135 -358 -156 -465 -53 -276 -59 -332 -60 -560 0 -291 26 -488 98 -730
11 -38 22 -74 23 -80 16 -63 76 -211 134 -325 177 -353 358 -584 661 -845 176
-152 455 -319 694 -416 117 -47 353 -115 465 -133 19 -3 62 -10 95 -16 113
-19 190 -24 380 -25 204 0 267 4 415 30 52 9 107 18 121 20 143 24 424 122
588 204 204 103 312 171 481 306 365 291 647 684 805 1120 26 72 49 137 50
145 2 8 15 60 29 115 56 223 71 366 70 645 0 232 -18 376 -70 585 -14 55 -27
107 -29 115 -2 8 -24 72 -48 141 -96 268 -253 542 -440 764 -257 307 -565 540
-932 707 -71 32 -235 94 -275 103 -8 2 -46 13 -85 24 -70 20 -243 55 -322 66
-23 3 -57 8 -75 11 -39 6 -453 15 -459 10z m296 -1021 c211 -39 363 -110 522
-245 145 -124 254 -301 282 -460 13 -75 5 -284 -14 -360 -72 -293 -255 -489
-640 -690 -171 -88 -169 -85 -170 -217 -1 -120 -10 -144 -58 -173 -28 -18 -51
-20 -195 -20 -248 0 -264 11 -264 198 0 65 3 133 6 152 43 243 166 384 461
530 39 19 72 38 73 43 2 4 8 7 13 7 21 0 129 77 179 129 95 99 130 250 81 352
-32 67 -118 149 -195 187 -99 49 -183 65 -296 58 -169 -10 -303 -61 -393 -148
-79 -77 -137 -74 -237 12 -19 17 -67 56 -107 88 -39 31 -76 67 -82 80 -14 29
-14 78 0 104 27 51 115 137 189 186 30 20 57 39 60 42 15 17 188 89 250 106
89 23 145 34 200 40 36 3 67 8 68 9 7 6 226 -2 267 -10z m-169 -2466 c66 -24
147 -98 176 -160 39 -82 37 -206 -5 -286 -30 -56 -109 -127 -165 -147 -126
-44 -250 -17 -341 75 -60 62 -85 120 -89 210 -4 69 -1 83 27 141 41 88 125
160 199 174 8 1 16 4 18 7 14 14 127 6 180 -14z"/>
</g>
</svg>
